<?xml version="1.0" encoding="UTF-8"?>
<svg xmlns="http://www.w3.org/2000/svg" xmlns:xlink="http://www.w3.org/1999/xlink" width="200px" height="200px" viewBox="0 0 200 200" version="1.1">
<g id="surface1">
<path style=" stroke:none;fill-rule:nonzero;fill:rgb(0%,0%,0%);fill-opacity:1;" d="M 94.5 43.535156 C 88.066406 44.464844 82.632812 46.132812 76.832031 49 C 71 51.867188 62.964844 57.765625 63.566406 58.734375 C 63.667969 58.933594 64.132812 58.667969 64.632812 58.199219 C 65.132812 57.699219 65.667969 57.433594 65.800781 57.566406 C 65.933594 57.699219 65.933594 57.566406 65.832031 57.265625 C 65.699219 56.964844 65.800781 56.632812 66.035156 56.464844 C 66.300781 56.300781 66.367188 56.367188 66.199219 56.632812 C 65.867188 57.167969 68.464844 55.167969 69.933594 53.734375 C 70.566406 53.167969 71.167969 52.699219 71.265625 52.699219 C 71.898438 52.800781 72.367188 52.632812 72.199219 52.398438 C 72.101562 52.234375 72.535156 51.898438 73.167969 51.667969 C 73.800781 51.398438 74.332031 51.101562 74.332031 51 C 74.332031 50.464844 76.066406 50 76.765625 50.332031 C 77.367188 50.632812 77.398438 50.601562 76.964844 50.265625 C 76.464844 49.933594 76.535156 49.800781 77.535156 49.265625 C 78.167969 48.933594 78.867188 48.667969 79.132812 48.667969 C 79.367188 48.667969 79.765625 48.433594 80.035156 48.132812 C 80.300781 47.800781 80.734375 47.699219 81.300781 47.832031 C 81.867188 47.964844 82 47.933594 81.734375 47.734375 C 81.132812 47.332031 82.667969 46.898438 83.566406 47.199219 C 84 47.332031 84.035156 47.300781 83.734375 47.066406 C 83.367188 46.832031 83.398438 46.734375 83.832031 46.535156 C 84.132812 46.433594 84.734375 46.332031 85.132812 46.332031 C 85.535156 46.332031 86 46.199219 86.167969 46.035156 C 86.5 45.699219 88.398438 45.265625 89.433594 45.300781 C 89.734375 45.300781 89.964844 45.199219 89.867188 45.066406 C 89.800781 44.933594 90.066406 44.832031 90.433594 44.800781 C 90.832031 44.800781 91.832031 44.667969 92.667969 44.566406 C 97.632812 43.832031 98.832031 43.734375 102 43.832031 C 105.933594 43.964844 109.566406 44.300781 110.332031 44.566406 C 110.601562 44.667969 111.101562 44.734375 111.464844 44.699219 C 111.800781 44.632812 112 44.734375 111.898438 44.898438 C 111.800781 45.035156 112.332031 45.199219 113.066406 45.234375 C 113.800781 45.234375 114.566406 45.433594 114.734375 45.601562 C 114.933594 45.800781 115.265625 45.867188 115.464844 45.800781 C 115.699219 45.699219 116.332031 45.867188 116.867188 46.167969 C 117.398438 46.433594 118 46.667969 118.199219 46.667969 C 118.433594 46.667969 119 46.898438 119.535156 47.132812 C 120.035156 47.398438 120.566406 47.566406 120.734375 47.464844 C 120.867188 47.367188 121.398438 47.566406 121.933594 47.933594 C 122.433594 48.300781 123.035156 48.5 123.265625 48.433594 C 123.464844 48.332031 123.667969 48.398438 123.667969 48.601562 C 123.667969 48.765625 124.265625 49.101562 125 49.332031 C 125.699219 49.566406 126.234375 49.867188 126.167969 50.035156 C 126.066406 50.167969 126.332031 50.398438 126.734375 50.5 C 127.167969 50.632812 127.765625 50.964844 128.066406 51.234375 C 128.367188 51.5 128.765625 51.667969 128.898438 51.566406 C 129.066406 51.464844 129.566406 51.699219 130 52.035156 C 130.734375 52.632812 130.734375 52.667969 130.101562 52.367188 C 129.035156 51.832031 128.734375 51.933594 129.601562 52.535156 C 130.035156 52.832031 130.566406 53 130.800781 52.898438 C 131.367188 52.667969 133 54.199219 132.964844 54.933594 C 132.964844 55.398438 132.898438 55.398438 132.667969 54.832031 C 132.398438 54.234375 132.367188 54.234375 132.367188 54.765625 C 132.332031 55.433594 129.632812 60.765625 129.265625 60.933594 C 129.101562 61 129 61.199219 129 61.367188 C 129 61.832031 126.433594 65.566406 124.933594 67.300781 C 124.234375 68.101562 123.765625 68.898438 123.898438 69.101562 C 124.035156 69.300781 123.933594 69.332031 123.699219 69.199219 C 123.464844 69.035156 123.367188 68.699219 123.464844 68.433594 C 123.566406 68.167969 123.5 68.066406 123.300781 68.167969 C 123.132812 68.300781 123.066406 68.667969 123.167969 69 C 123.367188 69.667969 120.867188 72.699219 116 77.632812 C 110.800781 82.933594 107.800781 85.464844 107.234375 85.101562 C 107.035156 85 107 85.035156 107.101562 85.234375 C 107.234375 85.433594 107.066406 85.867188 106.800781 86.199219 C 106.5 86.566406 106.367188 86.601562 106.5 86.332031 C 106.601562 86.066406 106.433594 86.167969 106.132812 86.566406 C 105.832031 87 105.433594 87.332031 105.265625 87.332031 C 105.101562 87.332031 104.332031 87.867188 103.601562 88.5 C 102.832031 89.132812 102.066406 89.566406 101.867188 89.433594 C 101.667969 89.332031 101.601562 89.332031 101.734375 89.5 C 101.964844 89.765625 100.433594 91.332031 99.933594 91.332031 C 99.800781 91.332031 99.265625 91.800781 98.734375 92.367188 C 98.132812 93.035156 97.667969 93.265625 97.535156 93.066406 C 97.398438 92.867188 97.667969 92.332031 98.066406 91.933594 C 98.5 91.5 98.832031 91.066406 98.832031 90.933594 C 98.832031 90.832031 98.933594 90.601562 99.101562 90.464844 C 99.234375 90.332031 99.332031 89.964844 99.332031 89.632812 C 99.332031 89.332031 99.5 89 99.699219 88.933594 C 99.867188 88.867188 100.066406 88.601562 100.101562 88.300781 C 100.167969 88 100.464844 87.367188 100.765625 86.867188 C 101.101562 86.398438 101.433594 85.535156 101.566406 84.964844 C 101.699219 84.234375 101.832031 84.066406 102.035156 84.398438 C 102.234375 84.699219 102.332031 84.667969 102.332031 84.167969 C 102.332031 83.765625 102.5 83.300781 102.734375 83.066406 C 102.964844 82.832031 103.035156 82.667969 102.898438 82.667969 C 102.800781 82.667969 103.101562 81.964844 103.601562 81.066406 C 104.398438 79.699219 105.132812 78.132812 106.734375 74.332031 C 106.933594 73.867188 107.265625 73.132812 107.5 72.667969 C 108.132812 71.464844 109.199219 68.101562 109.601562 66.167969 C 110.199219 63.199219 109.265625 59.933594 107.332031 58.167969 C 106.964844 57.832031 106.667969 57.667969 106.667969 57.800781 C 106.667969 57.933594 106.332031 57.832031 105.933594 57.601562 C 105.5 57.367188 105.066406 57.199219 104.933594 57.167969 C 104.832031 57.167969 104.632812 57.066406 104.535156 56.964844 C 104.199219 56.667969 100.632812 56.964844 98.332031 57.535156 C 95.265625 58.265625 93.765625 58.800781 90.800781 60.199219 C 89.332031 60.867188 87.832031 61.535156 87.398438 61.699219 C 87 61.867188 85.832031 62.535156 84.832031 63.167969 C 83.800781 63.800781 82.867188 64.332031 82.734375 64.332031 C 82.601562 64.332031 81.632812 64.933594 80.566406 65.667969 C 79.535156 66.398438 78.5 67 78.332031 67 C 78.132812 67 78 67.167969 78 67.367188 C 78 67.566406 77.800781 67.667969 77.601562 67.566406 C 77.367188 67.5 77.199219 67.265625 77.234375 67.101562 C 77.265625 66.933594 76.964844 66.800781 76.601562 66.800781 C 75.933594 66.800781 75.933594 66.800781 76.632812 67.265625 C 77.332031 67.734375 77.300781 67.765625 75.867188 68.898438 C 75.035156 69.535156 74.300781 70.035156 74.199219 70.035156 C 73.765625 70 65.867188 78.132812 65.832031 78.667969 C 65.800781 78.765625 65.464844 79.332031 65.101562 79.964844 C 64.101562 81.535156 63.535156 84.101562 63.765625 85.964844 C 64 87.867188 64.632812 89.398438 65.101562 89.101562 C 65.300781 88.964844 65.367188 89.101562 65.234375 89.464844 C 65.101562 89.765625 65.132812 89.964844 65.265625 89.867188 C 65.398438 89.800781 65.800781 89.933594 66.167969 90.199219 C 66.5 90.464844 66.667969 90.667969 66.5 90.667969 C 66.132812 90.667969 67.398438 91.632812 67.765625 91.667969 C 67.933594 91.667969 67.964844 91.535156 67.867188 91.367188 C 67.734375 91.199219 68.035156 91.234375 68.464844 91.433594 C 68.898438 91.667969 69.199219 91.933594 69.132812 92.066406 C 68.898438 92.433594 69.265625 92.398438 70.066406 91.964844 C 70.566406 91.699219 70.699219 91.699219 70.5 91.964844 C 70.132812 92.566406 72.101562 92 72.566406 91.367188 C 72.765625 91.066406 72.933594 89.898438 72.898438 88.601562 C 72.867188 87.398438 72.933594 86.464844 73.035156 86.535156 C 73.367188 86.734375 73.734375 85.035156 73.464844 84.601562 C 73.300781 84.367188 73.398438 84.332031 73.667969 84.5 C 73.964844 84.699219 74 84.566406 73.832031 83.964844 C 73.699219 83.535156 73.699219 83.265625 73.832031 83.398438 C 74.132812 83.667969 75.667969 81.5 75.667969 80.832031 C 75.667969 80.566406 75.832031 80.332031 76 80.332031 C 76.199219 80.332031 76.5 79.964844 76.667969 79.5 C 76.832031 79.035156 77.101562 78.667969 77.265625 78.667969 C 77.433594 78.667969 77.765625 78.300781 78 77.832031 C 78.234375 77.398438 78.566406 77.101562 78.734375 77.199219 C 78.867188 77.300781 79 77.066406 79 76.667969 C 79 76.265625 79.132812 76.066406 79.332031 76.167969 C 79.535156 76.300781 79.632812 76.199219 79.601562 75.964844 C 79.535156 75.734375 79.734375 75.535156 80 75.5 C 80.265625 75.5 80.667969 75.167969 80.867188 74.734375 C 81.066406 74.300781 81.332031 73.964844 81.464844 73.964844 C 82.035156 74.035156 82.265625 73.898438 83.433594 72.832031 C 84.101562 72.234375 84.667969 71.765625 84.667969 71.867188 C 84.667969 71.964844 85.132812 71.734375 85.667969 71.332031 C 86.234375 70.933594 86.566406 70.464844 86.464844 70.265625 C 86.332031 70.066406 86.535156 70.066406 86.964844 70.300781 C 87.566406 70.632812 87.632812 70.601562 87.433594 70.132812 C 87.300781 69.765625 87.332031 69.632812 87.601562 69.800781 C 87.800781 69.898438 88.132812 69.699219 88.332031 69.332031 C 88.535156 68.964844 88.867188 68.667969 89.101562 68.667969 C 89.332031 68.667969 89.300781 68.800781 89 69 C 88.699219 69.199219 88.667969 69.332031 88.898438 69.332031 C 89.101562 69.332031 89.601562 68.933594 90 68.398438 C 90.398438 67.898438 90.632812 67.699219 90.5 67.898438 C 90.398438 68.132812 90.464844 68.332031 90.632812 68.332031 C 90.832031 68.332031 91 68.199219 91 68.066406 C 91 67.898438 91.601562 67.566406 92.332031 67.332031 C 93.066406 67.101562 93.667969 66.765625 93.667969 66.601562 C 93.667969 66.464844 94.066406 66.332031 94.535156 66.332031 C 95 66.332031 95.300781 66.199219 95.199219 66.035156 C 94.964844 65.667969 95.667969 65.367188 96.234375 65.566406 C 96.5 65.667969 96.398438 65.933594 95.933594 66.398438 C 95.535156 66.800781 95.332031 67.332031 95.433594 67.734375 C 95.535156 68.101562 95.535156 68.300781 95.433594 68.199219 C 95.300781 68.101562 95.035156 68.332031 94.800781 68.765625 C 94.300781 69.566406 94.234375 69.734375 93.265625 72.167969 C 92.898438 73.066406 92.300781 74.132812 91.964844 74.535156 C 91.601562 74.898438 91.433594 75.300781 91.535156 75.433594 C 91.667969 75.566406 91.566406 75.867188 91.367188 76.132812 C 91.132812 76.398438 91.066406 76.832031 91.199219 77.035156 C 91.332031 77.265625 91.300781 77.332031 91.101562 77.234375 C 90.898438 77.101562 90.5 77.699219 90.167969 78.601562 C 89.832031 79.464844 89.265625 80.566406 88.933594 81.066406 C 88.566406 81.601562 88.398438 82.167969 88.535156 82.367188 C 88.667969 82.601562 88.632812 82.667969 88.433594 82.566406 C 88.234375 82.433594 87.964844 82.734375 87.867188 83.199219 C 87.734375 83.667969 87.332031 84.5 86.933594 85 C 86.5 85.601562 86.332031 86.167969 86.464844 86.535156 C 86.601562 86.867188 86.601562 87.035156 86.464844 86.898438 C 86.199219 86.632812 85 88.265625 85 88.933594 C 85 89.167969 84.667969 89.800781 84.300781 90.332031 C 83.867188 90.867188 83.667969 91.535156 83.800781 91.832031 C 83.898438 92.132812 83.867188 92.300781 83.699219 92.199219 C 83.433594 92.035156 81.667969 95.300781 81.667969 96 C 81.667969 96.199219 81.535156 96.265625 81.332031 96.167969 C 81.132812 96.035156 81.101562 96.199219 81.234375 96.535156 C 81.398438 96.964844 81.332031 97.035156 80.964844 96.832031 C 80.699219 96.699219 80.601562 96.667969 80.734375 96.832031 C 80.867188 96.964844 80.765625 97.5 80.5 97.964844 C 79.035156 100.601562 76.035156 107.433594 76.199219 107.699219 C 76.300781 107.867188 76.199219 107.964844 75.964844 107.933594 C 75.765625 107.867188 75.199219 108.933594 74.667969 110.398438 C 74.167969 111.832031 73.667969 112.898438 73.535156 112.765625 C 73.433594 112.667969 73.332031 113.035156 73.332031 113.632812 C 73.332031 114.234375 73.199219 114.632812 73.066406 114.535156 C 72.898438 114.433594 72.433594 115.535156 72.035156 116.933594 C 71.632812 118.332031 71.167969 119.800781 71 120.167969 C 70.632812 121 70.234375 123.132812 70.167969 124.699219 C 70.132812 125.367188 70 126.066406 69.867188 126.300781 C 69.566406 126.765625 70.234375 129.933594 70.765625 130.566406 C 70.933594 130.800781 70.964844 131 70.800781 131 C 70.632812 131 70.765625 131.167969 71.132812 131.367188 C 71.5 131.601562 71.601562 131.832031 71.398438 131.964844 C 71.167969 132.101562 71.234375 132.398438 71.566406 132.832031 C 72 133.398438 72.066406 133.398438 71.867188 132.898438 C 71.765625 132.535156 71.800781 132.367188 72 132.5 C 72.199219 132.601562 72.332031 133 72.332031 133.332031 C 72.332031 134.101562 73.199219 134.632812 74.132812 134.433594 C 74.667969 134.300781 74.734375 134.332031 74.367188 134.601562 C 73.964844 134.898438 74.035156 135 74.765625 135.167969 C 75.265625 135.300781 75.667969 135.566406 75.667969 135.734375 C 75.667969 135.898438 76.199219 136 76.832031 135.898438 C 77.464844 135.800781 78 135.867188 78 136.035156 C 78 136.566406 79.734375 136.332031 80.234375 135.734375 C 80.5 135.433594 80.632812 135.367188 80.5 135.566406 C 80.167969 136.234375 80.800781 136.066406 81.800781 135.300781 C 82.667969 134.632812 82.699219 134.464844 82.464844 132.867188 C 82.101562 130.265625 82.300781 127.566406 82.964844 125.898438 C 83.167969 125.367188 83.332031 124.566406 83.332031 124.066406 C 83.332031 123.367188 83.398438 123.265625 83.667969 123.667969 C 83.933594 124.066406 84 123.933594 84.035156 123.167969 C 84.066406 122.601562 84.101562 121.964844 84.101562 121.765625 C 84.066406 121.535156 84.199219 121.433594 84.367188 121.535156 C 84.632812 121.667969 84.832031 120.699219 84.699219 119.898438 C 84.699219 119.765625 84.832031 119.667969 85.035156 119.667969 C 85.234375 119.667969 85.300781 119.433594 85.199219 119.132812 C 85.101562 118.867188 85.132812 118.734375 85.332031 118.832031 C 85.535156 118.933594 85.667969 118.832031 85.667969 118.566406 C 85.667969 117.832031 87.199219 114.632812 87.433594 114.867188 C 87.535156 114.964844 87.535156 114.765625 87.433594 114.367188 C 87.332031 113.933594 87.398438 113.667969 87.699219 113.667969 C 87.933594 113.667969 88 113.566406 87.898438 113.433594 C 87.765625 113.332031 88.066406 112.566406 88.535156 111.765625 C 89 110.964844 89.265625 110.167969 89.167969 110 C 89.035156 109.800781 89.132812 109.699219 89.367188 109.734375 C 89.566406 109.800781 89.832031 109.632812 89.933594 109.367188 C 90 109.101562 89.933594 109 89.765625 109.101562 C 89.601562 109.199219 89.800781 108.566406 90.234375 107.667969 C 90.667969 106.734375 91.101562 106 91.167969 106 C 91.234375 106 91.464844 106.332031 91.699219 106.699219 C 91.964844 107.265625 91.964844 107.367188 91.667969 107.167969 C 91.398438 107 91.300781 107.066406 91.398438 107.367188 C 91.5 107.632812 91.800781 107.800781 92.101562 107.734375 C 92.367188 107.699219 92.699219 107.800781 92.832031 108 C 92.964844 108.199219 92.933594 108.332031 92.765625 108.300781 C 92.035156 108.167969 92.035156 108.398438 92.800781 109.132812 C 93.300781 109.566406 93.667969 110.101562 93.667969 110.300781 C 93.667969 110.535156 93.800781 110.601562 94 110.5 C 94.199219 110.367188 94.234375 110.535156 94.101562 110.867188 C 93.933594 111.332031 94 111.398438 94.5 111.234375 C 95.035156 111 95.035156 111.066406 94.632812 111.566406 C 94.367188 111.867188 94.332031 112.035156 94.535156 111.898438 C 94.734375 111.800781 95.066406 112.066406 95.300781 112.535156 C 95.5 113 95.832031 113.265625 96 113.167969 C 96.199219 113.035156 96.332031 113.066406 96.300781 113.234375 C 96.132812 113.898438 96.800781 115.332031 97.566406 116.066406 L 98.433594 116.832031 L 97.832031 115.832031 L 97.265625 114.832031 L 97.933594 115.667969 C 98.300781 116.132812 98.566406 116.566406 98.464844 116.632812 C 98.398438 116.699219 98.535156 117 98.734375 117.265625 C 98.964844 117.535156 99.167969 117.898438 99.199219 118.132812 C 99.234375 118.332031 99.300781 118.734375 99.367188 119 C 99.433594 119.265625 99.300781 119.464844 99.066406 119.398438 C 98.800781 119.367188 98.699219 119.464844 98.832031 119.667969 C 99 119.933594 99.199219 119.933594 99.535156 119.632812 C 99.867188 119.367188 99.898438 119.101562 99.632812 118.535156 C 99.398438 118.101562 99.566406 118.199219 100.132812 118.832031 C 100.601562 119.367188 100.964844 120.101562 101 120.398438 C 101 120.699219 101.167969 121.066406 101.398438 121.199219 C 101.632812 121.332031 101.667969 121.300781 101.535156 121.066406 C 101.035156 120.265625 101.601562 120.699219 102.167969 121.535156 C 102.464844 122.035156 102.535156 122.300781 102.300781 122.167969 C 102.035156 121.964844 101.964844 122.035156 102.132812 122.300781 C 102.300781 122.535156 102.601562 122.632812 102.867188 122.535156 C 103.132812 122.433594 103.300781 122.464844 103.265625 122.601562 C 103.132812 122.964844 104.332031 124.632812 105.734375 126.132812 C 106.433594 126.832031 106.898438 127.566406 106.765625 127.765625 C 106.667969 127.964844 106.734375 128 106.964844 127.867188 C 107.167969 127.734375 107.234375 127.433594 107.101562 127.234375 C 107 127 107.199219 127.132812 107.601562 127.464844 C 108 127.832031 108.300781 128.332031 108.265625 128.632812 C 108.199219 128.964844 108.398438 129.132812 108.734375 129.132812 C 109.066406 129.101562 109.199219 129.265625 109.101562 129.535156 C 108.933594 129.933594 109.367188 130.167969 110.101562 130.035156 C 110.234375 130.035156 110.332031 130.199219 110.332031 130.464844 C 110.332031 131.035156 111.632812 132.066406 112.066406 131.800781 C 112.199219 131.699219 112.234375 131.898438 112.101562 132.199219 C 111.964844 132.601562 112 132.699219 112.265625 132.535156 C 112.5 132.398438 112.933594 132.464844 113.234375 132.667969 C 113.765625 133 113.765625 133.035156 113.167969 132.867188 L 112.5 132.667969 L 113.167969 133.199219 C 113.535156 133.5 114.234375 133.867188 114.734375 134.066406 C 115.265625 134.234375 115.566406 134.535156 115.464844 134.699219 C 115.367188 134.867188 115.535156 134.898438 115.800781 134.800781 C 116.167969 134.667969 116.265625 134.800781 116.167969 135.300781 C 116.101562 135.734375 116.167969 135.933594 116.367188 135.800781 C 116.535156 135.699219 116.898438 135.800781 117.167969 136 C 117.433594 136.234375 117.867188 136.332031 118.132812 136.234375 C 118.398438 136.132812 118.699219 136.265625 118.800781 136.535156 C 118.898438 136.800781 119.300781 137 119.667969 137 C 120.066406 137 120.300781 137.132812 120.167969 137.300781 C 119.933594 137.699219 121.199219 138.132812 121.667969 137.832031 C 121.867188 137.699219 121.964844 137.800781 121.933594 138.035156 C 121.867188 138.234375 122.035156 138.5 122.300781 138.601562 C 122.601562 138.699219 122.667969 138.601562 122.5 138.332031 C 122.367188 138.101562 122.601562 138.167969 123.066406 138.464844 C 124.132812 139.167969 129.632812 140.234375 129.933594 139.800781 C 130.066406 139.601562 130.535156 139.433594 130.964844 139.433594 C 131.699219 139.367188 131.699219 139.398438 131.132812 139.867188 C 130.535156 140.332031 130.535156 140.332031 131.132812 140.101562 C 131.566406 139.964844 131.699219 140 131.535156 140.265625 C 131.398438 140.5 131.035156 140.667969 130.699219 140.667969 C 130.398438 140.667969 130 140.800781 129.832031 140.964844 C 129.035156 141.699219 121.5 145.332031 120.765625 145.332031 C 120.234375 145.332031 120.035156 145.464844 120.199219 145.734375 C 120.332031 145.964844 120.300781 146 120.035156 145.867188 C 119.832031 145.734375 119.464844 145.734375 119.234375 145.898438 C 119 146.066406 118.167969 146.398438 117.332031 146.632812 C 116.5 146.898438 115.265625 147.300781 114.566406 147.535156 C 113.867188 147.800781 113.132812 147.933594 112.964844 147.800781 C 112.800781 147.699219 112.433594 147.765625 112.199219 147.964844 C 111.964844 148.167969 111.398438 148.332031 110.964844 148.332031 C 110.535156 148.332031 109.332031 148.398438 108.332031 148.5 C 103.066406 149 99.464844 149.066406 95.667969 148.699219 C 90.367188 148.167969 89.699219 148.066406 90.367188 147.632812 C 90.667969 147.433594 90.332031 147.398438 89.332031 147.535156 C 88.167969 147.667969 87.933594 147.632812 88.332031 147.332031 C 88.734375 147.035156 88.699219 147 88.101562 147.167969 C 87.699219 147.265625 87.300781 147.199219 87.199219 147.035156 C 87.066406 146.832031 86.800781 146.765625 86.566406 146.867188 C 86 147.066406 83.535156 146.167969 82.300781 145.332031 C 81.433594 144.699219 81.367188 144.699219 81.566406 145.234375 C 81.800781 145.800781 81.765625 145.800781 80.898438 145.234375 C 80.398438 144.898438 79.800781 144.734375 79.601562 144.867188 C 79.398438 145 79.332031 144.964844 79.433594 144.765625 C 79.566406 144.601562 79.066406 144.234375 78.332031 144 C 77.566406 143.734375 77.101562 143.433594 77.234375 143.199219 C 77.332031 143 77.332031 142.933594 77.167969 143.066406 C 77.035156 143.199219 76.464844 143 75.933594 142.601562 C 75.167969 142.066406 75.035156 141.832031 75.398438 141.601562 C 75.734375 141.332031 75.734375 141.300781 75.332031 141.433594 C 75.066406 141.5 74.867188 141.867188 74.898438 142.199219 C 74.933594 142.535156 74.898438 142.632812 74.800781 142.398438 C 74.699219 142.199219 74.464844 142.066406 74.332031 142.167969 C 74.167969 142.265625 73.933594 142.167969 73.800781 141.964844 C 73.667969 141.699219 73.699219 141.667969 73.933594 141.800781 C 74.167969 141.933594 74.332031 141.867188 74.332031 141.667969 C 74.332031 141.433594 74.066406 141.367188 73.667969 141.5 C 73.300781 141.632812 73 141.566406 73 141.367188 C 73 141.167969 72.632812 140.933594 72.167969 140.800781 C 71.5 140.632812 71.398438 140.5 71.667969 140.167969 C 71.933594 139.832031 71.933594 139.667969 71.632812 139.464844 C 71.398438 139.332031 71.332031 139.367188 71.433594 139.566406 C 71.566406 139.765625 71.433594 140 71.167969 140.132812 C 70.898438 140.234375 70.601562 140.132812 70.464844 139.933594 C 70.300781 139.699219 70.398438 139.667969 70.699219 139.800781 C 70.964844 139.933594 70.800781 139.734375 70.332031 139.367188 C 69.535156 138.699219 69.132812 138.535156 68.566406 138.632812 C 68.433594 138.667969 68.464844 138.367188 68.667969 137.964844 C 69 137.367188 69 137.332031 68.433594 137.632812 C 67.800781 137.964844 66.832031 137.632812 66.832031 137.101562 C 66.832031 136.964844 66.464844 136.464844 66.035156 136.035156 C 65.433594 135.433594 65.265625 135.367188 65.433594 135.800781 C 65.566406 136.132812 65.199219 135.933594 64.5 135.300781 C 63.332031 134.167969 62.898438 133.535156 63.832031 134.332031 C 64.132812 134.566406 64.433594 134.699219 64.5 134.601562 C 64.601562 134.5 64.265625 134.234375 63.734375 133.964844 C 62.332031 133.234375 60.5 131.199219 60.601562 130.464844 C 60.699219 129.964844 60.632812 129.933594 60.367188 130.332031 C 59.964844 130.933594 59.5 130.535156 59.5 129.566406 C 59.5 129.101562 59.332031 128.867188 59.035156 128.933594 C 58.535156 129.035156 58 128.433594 58 127.734375 C 58 127.5 58.132812 127.367188 58.265625 127.464844 C 58.765625 127.765625 58.464844 126.332031 57.898438 125.765625 C 57.398438 125.265625 57.332031 125.265625 57.132812 125.765625 C 57.035156 126.066406 56.800781 126.234375 56.632812 126.132812 C 56.464844 126.035156 56.433594 125.800781 56.535156 125.601562 C 56.667969 125.398438 56.601562 125.332031 56.433594 125.433594 C 56 125.699219 55.601562 124.867188 55.867188 124.234375 C 55.933594 124 55.800781 123.535156 55.5 123.167969 C 55 122.5 55 122.5 55.234375 123.167969 C 55.433594 123.765625 55.398438 123.765625 54.898438 123.367188 C 54.601562 123.132812 54.332031 122.800781 54.332031 122.632812 C 54.332031 122.5 53.867188 121.667969 53.300781 120.832031 C 52.734375 120 52.234375 119.132812 52.199219 118.898438 C 52.066406 118.300781 51.699219 117.398438 50.734375 115.332031 C 50.265625 114.332031 49.898438 113.101562 49.898438 112.566406 C 49.867188 112.066406 49.765625 111.667969 49.667969 111.667969 C 49.535156 111.667969 49.265625 111.265625 49.035156 110.765625 C 48.667969 109.964844 48.699219 109.933594 49.167969 110.332031 C 49.601562 110.699219 49.601562 110.535156 49.066406 109.300781 C 48.734375 108.5 48.535156 107.566406 48.601562 107.199219 C 48.667969 106.867188 48.601562 106.667969 48.398438 106.800781 C 48.234375 106.898438 48.132812 106.601562 48.199219 106.167969 C 48.234375 105.699219 48.167969 105.398438 48.066406 105.464844 C 47.800781 105.632812 47.601562 102.765625 47.566406 98.398438 C 47.566406 96.5 47.433594 95.464844 47.234375 95.734375 C 47.066406 96 47.035156 95.800781 47.167969 95.167969 C 47.632812 93.167969 47.667969 92.800781 47.699219 91 C 47.734375 89.367188 48.132812 87.066406 49 83.667969 C 49.167969 83.035156 49.398438 82.066406 49.5 81.535156 C 49.667969 80.734375 49.765625 80.632812 50.035156 81.035156 C 50.300781 81.398438 50.332031 81.332031 50.167969 80.800781 C 50.066406 80.398438 50.300781 79.398438 50.699219 78.464844 C 51.101562 77.566406 51.398438 76.601562 51.367188 76.367188 C 51.300781 75.933594 51.367188 75.933594 51.800781 76.300781 C 52.265625 76.699219 52.332031 76.699219 52.132812 76.234375 C 52.035156 75.933594 52.167969 75.199219 52.464844 74.632812 C 52.765625 74.035156 53 73.398438 53 73.167969 C 53 72.964844 53.367188 72.433594 53.832031 72 C 54.300781 71.566406 54.667969 70.933594 54.667969 70.601562 C 54.667969 70.199219 54.800781 70.066406 55.035156 70.199219 C 55.300781 70.332031 55.332031 70.199219 55.167969 69.699219 C 55.066406 69.300781 55.101562 69 55.300781 69 C 55.464844 69 55.964844 68.433594 56.367188 67.734375 C 56.800781 67.066406 57.265625 66.433594 57.398438 66.398438 C 57.566406 66.332031 57.566406 66.101562 57.433594 65.898438 C 57.300781 65.699219 57.433594 65.632812 57.765625 65.765625 C 58.066406 65.867188 58.398438 65.800781 58.535156 65.601562 C 58.667969 65.367188 58.632812 65.332031 58.398438 65.464844 C 57.566406 65.964844 58.066406 65 59.234375 63.765625 C 59.898438 63.066406 60.332031 62.734375 60.167969 63 C 60 63.300781 60 63.398438 60.199219 63.234375 C 60.367188 63.066406 60.5 62.832031 60.535156 62.734375 C 60.632812 62.035156 61.132812 61.332031 61.535156 61.332031 C 61.800781 61.332031 62.167969 60.964844 62.332031 60.5 C 62.5 60.035156 62.734375 59.667969 62.832031 59.667969 C 62.964844 59.667969 62.933594 59.867188 62.800781 60.066406 C 62.667969 60.300781 62.832031 60.234375 63.199219 59.933594 C 63.667969 59.464844 63.734375 59.265625 63.398438 58.933594 C 63.066406 58.601562 62.667969 58.867188 61.464844 60.167969 C 54.234375 68.101562 50.167969 75.800781 47.800781 85.898438 C 46.632812 90.867188 46.367188 98.933594 47.132812 104.265625 C 48.832031 115.667969 53.867188 125.566406 62.167969 133.832031 C 70.566406 142.167969 82.101562 147.765625 94.167969 149.367188 C 98.566406 149.933594 107.933594 149.601562 112.265625 148.699219 C 118.898438 147.300781 126.464844 144.234375 131.167969 141 C 132.265625 140.234375 133.566406 139.367188 134.066406 139.066406 C 135.101562 138.433594 135.332031 137.765625 134.433594 138.199219 C 133.433594 138.632812 128.132812 138.765625 126.367188 138.367188 C 125.433594 138.167969 123.433594 137.535156 121.964844 136.964844 C 113.667969 133.765625 103.5 123.5 94 108.765625 C 92.433594 106.367188 91.101562 104.367188 91 104.367188 C 90.800781 104.367188 88.734375 108.800781 86.066406 115 C 82.035156 124.300781 80.566406 130.535156 81.800781 133.035156 C 82.433594 134.300781 82.234375 134.5 80.265625 134.832031 C 77.066406 135.398438 73.199219 133.5 71.734375 130.667969 C 71.035156 129.300781 70.964844 128.832031 71.101562 125.832031 C 71.433594 119.167969 73.667969 113.734375 87.898438 85.167969 C 95.933594 69.066406 97.898438 64.765625 97.398438 64.265625 C 96.832031 63.699219 90.199219 66.832031 85.832031 69.765625 C 83.101562 71.601562 82.265625 72.300781 79.234375 75.265625 C 74.464844 79.933594 71.832031 84.964844 72.066406 89 L 72.167969 90.832031 L 70.332031 90.832031 C 65.199219 90.765625 63.101562 85.535156 66.035156 79.964844 C 67.765625 76.601562 73.433594 71.167969 79 67.464844 C 84.367188 63.933594 91.667969 60.167969 95.832031 58.800781 C 98.332031 58 99.367188 57.832031 102.234375 57.832031 C 105.132812 57.832031 105.734375 57.933594 106.535156 58.535156 C 108.5 59.964844 108.832031 60.800781 108.832031 63.933594 C 108.800781 66.464844 108.632812 67.265625 107.535156 70.167969 C 106.300781 73.464844 98.5 89.601562 96.234375 93.566406 C 95.566406 94.734375 95.101562 95.667969 95.167969 95.667969 C 95.5 95.667969 101.433594 91.332031 105.066406 88.398438 C 114.867188 80.632812 123.464844 71.632812 128.898438 63.535156 C 130.332031 61.367188 133.964844 54.765625 134 54.265625 C 134 53.800781 128.265625 50.265625 124.632812 48.535156 C 116.800781 44.800781 111.765625 43.667969 102.332031 43.5 C 98.566406 43.433594 95.066406 43.464844 94.5 43.535156 Z M 92.667969 66.800781 C 92.667969 66.867188 92.433594 67.035156 92.132812 67.132812 C 91.867188 67.234375 91.734375 67.199219 91.832031 67 C 92.035156 66.667969 92.667969 66.535156 92.667969 66.800781 Z M 85.667969 70.832031 C 85.433594 71.101562 85.101562 71.332031 84.898438 71.332031 C 84.699219 71.332031 84.832031 71.101562 85.199219 70.832031 C 86.035156 70.199219 86.199219 70.199219 85.667969 70.832031 Z M 55.667969 124 C 55.667969 124.167969 55.5 124.332031 55.300781 124.332031 C 55.132812 124.332031 55.066406 124.167969 55.167969 124 C 55.265625 123.800781 55.433594 123.667969 55.535156 123.667969 C 55.601562 123.667969 55.667969 123.800781 55.667969 124 Z M 57.933594 127.132812 C 57.566406 127.765625 57.5 127.765625 57.398438 127.234375 C 57.332031 126.933594 57.132812 126.765625 56.964844 126.867188 C 56.765625 126.964844 56.800781 126.765625 57.035156 126.398438 C 57.367188 125.867188 57.601562 125.800781 57.898438 126.066406 C 58.234375 126.332031 58.234375 126.566406 57.933594 127.132812 Z M 73.667969 134 C 73.667969 134.167969 73.601562 134.332031 73.535156 134.332031 C 73.433594 134.332031 73.265625 134.167969 73.167969 134 C 73.066406 133.800781 73.132812 133.667969 73.300781 133.667969 C 73.5 133.667969 73.667969 133.800781 73.667969 134 Z M 128.898438 139.535156 C 128.800781 139.632812 128.5 139.667969 128.265625 139.566406 C 128 139.464844 128.101562 139.367188 128.464844 139.367188 C 128.832031 139.332031 129.035156 139.433594 128.898438 139.535156 Z M 128.898438 139.535156 "/>
<path style=" stroke:none;fill-rule:nonzero;fill:rgb(0%,0%,0%);fill-opacity:1;" d="M 95.867188 44.632812 C 95.734375 44.800781 95.964844 44.867188 96.332031 44.765625 C 97.101562 44.566406 97.199219 44.332031 96.535156 44.332031 C 96.265625 44.332031 95.964844 44.464844 95.867188 44.632812 Z M 95.867188 44.632812 "/>
<path style=" stroke:none;fill-rule:nonzero;fill:rgb(0%,0%,0%);fill-opacity:1;" d="M 78.265625 49.566406 C 78.5 49.667969 78.800781 49.632812 78.898438 49.535156 C 79.035156 49.433594 78.832031 49.332031 78.464844 49.367188 C 78.101562 49.367188 78 49.464844 78.265625 49.566406 Z M 78.265625 49.566406 "/>
<path style=" stroke:none;fill-rule:nonzero;fill:rgb(0%,0%,0%);fill-opacity:1;" d="M 124.300781 49.632812 C 124.667969 49.867188 124.667969 49.933594 124.300781 50.101562 C 124.035156 50.167969 124.234375 50.234375 124.765625 50.199219 C 125.566406 50.167969 125.601562 50.132812 125.101562 49.734375 C 124.800781 49.535156 124.367188 49.332031 124.199219 49.332031 C 124 49.332031 124.035156 49.464844 124.300781 49.632812 Z M 124.300781 49.632812 "/>
<path style=" stroke:none;fill-rule:nonzero;fill:rgb(0%,0%,0%);fill-opacity:1;" d="M 85 62.332031 C 84.699219 62.535156 84.667969 62.667969 84.898438 62.667969 C 85.101562 62.667969 85.398438 62.5 85.5 62.332031 C 85.765625 61.933594 85.632812 61.933594 85 62.332031 Z M 85 62.332031 "/>
<path style=" stroke:none;fill-rule:nonzero;fill:rgb(0%,0%,0%);fill-opacity:1;" d="M 142.367188 63.699219 C 141.667969 65.265625 138.300781 70.234375 136.101562 73 C 132.367188 77.601562 126.898438 82.898438 121.832031 86.867188 C 115 92.199219 110.464844 95 101.734375 99.199219 C 101.566406 99.300781 105.398438 104.667969 109.199219 109.667969 C 117.234375 120.265625 124.398438 126.765625 131.199219 129.699219 C 133.632812 130.734375 134.101562 130.800781 137.5 130.832031 C 140.898438 130.832031 141.300781 130.765625 143 129.867188 C 144.632812 129.035156 145.132812 128.535156 146.964844 125.699219 C 153.234375 116.101562 156.035156 106 155.566406 94.667969 C 155.132812 84.066406 151.601562 74 145.265625 65.433594 C 144.132812 63.933594 143.101562 62.667969 143 62.667969 C 142.898438 62.667969 142.632812 63.132812 142.367188 63.699219 Z M 144 64.898438 C 144 65.199219 144.101562 65.332031 144.234375 65.234375 C 144.5 64.933594 147.367188 69.332031 147.167969 69.699219 C 147.066406 69.832031 147.132812 70.300781 147.300781 70.734375 C 147.5 71.132812 147.632812 71.300781 147.632812 71.066406 C 147.667969 70.867188 147.832031 70.667969 148 70.667969 C 148.234375 70.667969 148.199219 70.933594 147.964844 71.398438 C 147.566406 72.132812 147.601562 72.132812 148.199219 71.667969 C 148.535156 71.398438 148.734375 71.332031 148.601562 71.464844 C 148.464844 71.632812 148.667969 72.199219 149.035156 72.699219 C 149.398438 73.234375 149.667969 73.832031 149.632812 74.066406 C 149.535156 74.699219 150.035156 75.699219 150.332031 75.5 C 150.601562 75.332031 151.167969 76.566406 151.535156 78.167969 C 151.667969 78.699219 152.132812 79.964844 152.566406 80.964844 C 153.167969 82.332031 153.265625 82.832031 152.964844 83.199219 C 152.632812 83.632812 152.765625 83.800781 153.398438 83.699219 C 153.5 83.699219 153.464844 84.167969 153.300781 84.734375 C 153.132812 85.300781 153.101562 85.867188 153.167969 85.964844 C 153.265625 86.035156 153.332031 85.898438 153.332031 85.632812 C 153.367188 85.332031 153.464844 85.367188 153.734375 85.800781 C 154.398438 86.964844 154.933594 92.800781 154.832031 98 C 154.734375 103.199219 154.632812 104.332031 153.964844 107.667969 C 153.632812 109.167969 153.535156 109.367188 153.265625 108.832031 C 153.066406 108.300781 153.035156 108.367188 153.167969 109.101562 C 153.398438 110.332031 153.035156 112.398438 152.601562 112.132812 C 152.398438 112 152.367188 112.199219 152.5 112.667969 C 152.667969 113.234375 152.632812 113.332031 152.332031 113.167969 C 152 112.964844 151.933594 113.132812 152.066406 113.765625 C 152.167969 114.265625 152.132812 114.699219 152.035156 114.734375 C 151.765625 114.867188 149.898438 119.234375 150 119.535156 C 150.035156 119.667969 149.933594 119.867188 149.765625 119.964844 C 149.632812 120.066406 149.199219 120.699219 148.867188 121.332031 C 148.5 121.964844 148.132812 122.566406 148.035156 122.667969 C 147.5 123.101562 146.667969 124.734375 146.832031 125 C 146.933594 125.167969 146.832031 125.398438 146.632812 125.535156 C 146.367188 125.699219 146.300781 125.601562 146.464844 125.300781 C 146.601562 125.035156 146.5 125.132812 146.199219 125.464844 C 145.933594 125.800781 145.765625 126.234375 145.867188 126.367188 C 145.964844 126.535156 145.867188 126.667969 145.667969 126.667969 C 145.433594 126.667969 145.332031 126.433594 145.433594 126.167969 C 145.765625 125.367188 145.132812 125.300781 144.464844 126.101562 C 143.933594 126.699219 143.933594 126.734375 144.433594 126.367188 C 144.734375 126.132812 145 126 145 126.101562 C 145 126.199219 145.101562 126.535156 145.199219 126.832031 C 145.367188 127.234375 145.265625 127.367188 144.898438 127.265625 C 144.601562 127.199219 144.398438 127.300781 144.433594 127.5 C 144.464844 127.667969 144.667969 127.800781 144.832031 127.734375 C 145.035156 127.699219 144.800781 127.964844 144.367188 128.332031 C 143.867188 128.765625 143.332031 128.933594 142.867188 128.832031 C 142.367188 128.667969 142.300781 128.699219 142.632812 128.933594 C 143.566406 129.601562 141.832031 130.066406 138 130.234375 C 135.367188 130.367188 134.933594 130.300781 132 129.167969 C 128.066406 127.632812 120.433594 122.464844 121.101562 121.800781 C 121.234375 121.667969 121.332031 121.734375 121.332031 121.933594 C 121.332031 122.167969 121.5 122.332031 121.699219 122.332031 C 121.964844 122.332031 121.964844 122.167969 121.667969 121.832031 C 121.433594 121.566406 121.101562 121.433594 120.933594 121.535156 C 120.464844 121.832031 118.234375 119.464844 118.535156 118.964844 C 118.699219 118.699219 118.632812 118.632812 118.367188 118.832031 C 117.832031 119.132812 114.933594 116.035156 115.167969 115.398438 C 115.265625 115.167969 115.167969 115.066406 115 115.167969 C 114.601562 115.398438 112.566406 113.398438 112.800781 113.035156 C 112.898438 112.898438 112.601562 112.433594 112.132812 112.035156 C 111.667969 111.632812 111.398438 111.132812 111.535156 110.933594 C 111.667969 110.734375 111.632812 110.667969 111.433594 110.765625 C 111.265625 110.898438 110.800781 110.632812 110.433594 110.199219 C 109.265625 108.867188 106.167969 104.167969 106.265625 103.898438 C 106.300781 103.734375 106.199219 103.699219 106 103.832031 C 105.832031 103.933594 105.566406 103.765625 105.433594 103.433594 C 105.199219 102.765625 103.667969 100.632812 103.234375 100.300781 C 102.535156 99.765625 103.332031 99 104.601562 99 C 105 99 105.332031 98.867188 105.332031 98.699219 C 105.332031 98.535156 105.667969 98.265625 106.101562 98.167969 C 107.535156 97.734375 109.167969 96.898438 109.699219 96.265625 C 110.035156 95.933594 110.398438 95.667969 110.535156 95.734375 C 110.933594 95.832031 113 94.898438 113 94.601562 C 113 94.464844 112.734375 94.433594 112.433594 94.566406 C 111.800781 94.800781 111.832031 94.734375 112.800781 94 C 113.234375 93.667969 113.367188 93.667969 113.199219 93.898438 C 112.734375 94.734375 113.601562 94.332031 114.132812 93.5 C 114.433594 93.035156 114.832031 92.734375 115 92.832031 C 115.535156 93.167969 116.734375 92.332031 116.535156 91.765625 C 116.398438 91.433594 116.464844 91.332031 116.800781 91.433594 C 117.234375 91.601562 120.332031 89.832031 120.332031 89.433594 C 120.332031 89.367188 120.167969 89.398438 119.933594 89.535156 C 119.699219 89.667969 119.667969 89.632812 119.800781 89.398438 C 119.933594 89.199219 120.265625 89.132812 120.566406 89.234375 C 120.867188 89.367188 121.035156 89.300781 120.898438 89.132812 C 120.800781 88.964844 121.167969 88.601562 121.699219 88.367188 C 122.234375 88.132812 122.667969 87.800781 122.667969 87.601562 C 122.667969 87.398438 122.398438 87.464844 122.066406 87.765625 C 121.734375 88.101562 121.300781 88.332031 121.132812 88.332031 C 121 88.332031 121.234375 88.066406 121.667969 87.765625 C 122.132812 87.433594 122.632812 87.199219 122.800781 87.265625 C 123.234375 87.398438 124.699219 86.332031 124.5 86.035156 C 124.398438 85.867188 124.800781 85.566406 125.367188 85.367188 C 126.035156 85.132812 126.300781 84.867188 126.132812 84.601562 C 126 84.367188 126.035156 84.265625 126.167969 84.433594 C 126.535156 84.765625 129.367188 82 129.101562 81.566406 C 129 81.367188 129.035156 81.332031 129.234375 81.433594 C 129.566406 81.632812 130.867188 80.5 131.066406 79.832031 C 131.132812 79.632812 131.5 79.5 131.898438 79.535156 C 132.5 79.535156 132.566406 79.433594 132.300781 78.933594 C 132.132812 78.601562 132.101562 78.367188 132.234375 78.398438 C 132.699219 78.535156 134.832031 76.265625 134.734375 75.765625 C 134.667969 75.464844 134.765625 75.367188 134.964844 75.5 C 135.167969 75.601562 135.332031 75.464844 135.332031 75.199219 C 135.332031 74.898438 135.5 74.699219 135.734375 74.765625 C 135.933594 74.800781 136.199219 74.535156 136.265625 74.167969 C 136.464844 73.300781 137 72.632812 137.367188 72.867188 C 137.535156 72.964844 137.699219 72.867188 137.699219 72.699219 C 137.734375 72.5 137.765625 72.199219 137.800781 72.035156 C 137.800781 71.867188 137.964844 71.601562 138.132812 71.433594 C 138.300781 71.265625 138.332031 71.367188 138.199219 71.667969 C 137.765625 72.535156 139.433594 70.265625 141.167969 67.566406 C 141.632812 66.867188 141.867188 66.367188 141.667969 66.5 C 141.5 66.601562 141.601562 66.265625 141.898438 65.699219 C 142.234375 65.167969 142.566406 64.765625 142.699219 64.867188 C 142.832031 64.933594 143.035156 64.765625 143.132812 64.464844 C 143.367188 63.832031 144 64.167969 144 64.898438 Z M 127.667969 83.167969 C 127.234375 83.632812 126.734375 84 126.566406 84 C 126.367188 84 126.667969 83.632812 127.199219 83.167969 C 128.433594 82.101562 128.667969 82.101562 127.667969 83.167969 Z M 124 86.300781 C 124 86.464844 123.765625 86.699219 123.464844 86.800781 C 123 86.964844 122.964844 86.933594 123.332031 86.5 C 123.800781 85.933594 124 85.867188 124 86.300781 Z M 118.832031 90.332031 C 118.734375 90.5 118.433594 90.667969 118.234375 90.667969 C 118 90.667969 118.035156 90.535156 118.332031 90.332031 C 118.964844 89.933594 119.101562 89.933594 118.832031 90.332031 Z M 118.832031 90.332031 "/>
<path style=" stroke:none;fill-rule:nonzero;fill:rgb(0%,0%,0%);fill-opacity:1;" d="M 144.433594 66.167969 C 144.433594 66.433594 144.566406 66.566406 144.734375 66.464844 C 144.898438 66.367188 144.933594 66.132812 144.832031 65.964844 C 144.535156 65.535156 144.433594 65.601562 144.433594 66.167969 Z M 144.433594 66.167969 "/>
<path style=" stroke:none;fill-rule:nonzero;fill:rgb(0%,0%,0%);fill-opacity:1;" d="M 145.5 68.332031 C 145.601562 68.5 145.765625 68.667969 145.867188 68.667969 C 145.933594 68.667969 146 68.5 146 68.332031 C 146 68.132812 145.832031 68 145.632812 68 C 145.464844 68 145.398438 68.132812 145.5 68.332031 Z M 145.5 68.332031 "/>
<path style=" stroke:none;fill-rule:nonzero;fill:rgb(0%,0%,0%);fill-opacity:1;" d="M 129.832031 81.964844 C 129.734375 82.132812 129.765625 82.367188 129.933594 82.464844 C 130.101562 82.566406 130.234375 82.433594 130.234375 82.167969 C 130.234375 81.601562 130.132812 81.535156 129.832031 81.964844 Z M 129.832031 81.964844 "/>
<path style=" stroke:none;fill-rule:nonzero;fill:rgb(0%,0%,0%);fill-opacity:1;" d="M 105.332031 101.464844 C 105.332031 101.566406 105.632812 101.800781 106 102 C 106.367188 102.199219 106.667969 102.265625 106.667969 102.199219 C 106.667969 102.101562 106.367188 101.867188 106 101.667969 C 105.632812 101.464844 105.332031 101.398438 105.332031 101.464844 Z M 105.332031 101.464844 "/>
<path style=" stroke:none;fill-rule:nonzero;fill:rgb(0%,0%,0%);fill-opacity:1;" d="M 141.199219 106.566406 C 141 107.035156 141.035156 107.066406 141.367188 106.765625 C 141.601562 106.535156 141.699219 106.265625 141.601562 106.167969 C 141.5 106.066406 141.300781 106.234375 141.199219 106.566406 Z M 141.199219 106.566406 "/>
<path style=" stroke:none;fill-rule:nonzero;fill:rgb(0%,0%,0%);fill-opacity:1;" d="M 140 107.699219 C 140 107.867188 140.167969 107.933594 140.332031 107.832031 C 140.535156 107.734375 140.667969 107.566406 140.667969 107.464844 C 140.667969 107.398438 140.535156 107.332031 140.332031 107.332031 C 140.167969 107.332031 140 107.5 140 107.699219 Z M 140 107.699219 "/>
<path style=" stroke:none;fill-rule:nonzero;fill:rgb(0%,0%,0%);fill-opacity:1;" d="M 135.867188 111.566406 C 135.667969 112.035156 135.699219 112.066406 136.035156 111.765625 C 136.265625 111.535156 136.367188 111.265625 136.265625 111.167969 C 136.167969 111.066406 135.964844 111.234375 135.867188 111.566406 Z M 135.867188 111.566406 "/>
<path style=" stroke:none;fill-rule:nonzero;fill:rgb(0%,0%,0%);fill-opacity:1;" d="M 134.300781 112.898438 C 133.867188 113.398438 133.898438 113.398438 134.601562 113.035156 C 135.367188 112.632812 135.535156 112.332031 135.035156 112.332031 C 134.867188 112.332031 134.535156 112.566406 134.300781 112.898438 Z M 134.300781 112.898438 "/>
<path style=" stroke:none;fill-rule:nonzero;fill:rgb(0%,0%,0%);fill-opacity:1;" d="M 116.535156 115.066406 C 116.632812 115.234375 116.867188 115.265625 117.035156 115.167969 C 117.464844 114.867188 117.398438 114.765625 116.832031 114.765625 C 116.566406 114.765625 116.433594 114.898438 116.535156 115.066406 Z M 116.535156 115.066406 "/>
<path style=" stroke:none;fill-rule:nonzero;fill:rgb(0%,0%,0%);fill-opacity:1;" d="M 130.800781 115.5 C 130.464844 115.765625 130.332031 116 130.535156 116 C 130.734375 116 131.101562 115.765625 131.332031 115.5 C 131.867188 114.867188 131.632812 114.867188 130.800781 115.5 Z M 130.800781 115.5 "/>
<path style=" stroke:none;fill-rule:nonzero;fill:rgb(0%,0%,0%);fill-opacity:1;" d="M 149.699219 116.199219 C 149.699219 116.566406 149.800781 116.667969 149.898438 116.398438 C 150 116.167969 149.964844 115.867188 149.867188 115.765625 C 149.765625 115.632812 149.667969 115.832031 149.699219 116.199219 Z M 149.699219 116.199219 "/>
<path style=" stroke:none;fill-rule:nonzero;fill:rgb(0%,0%,0%);fill-opacity:1;" d="M 149.832031 117.699219 C 149.699219 117.898438 149.667969 118.101562 149.765625 118.199219 C 149.832031 118.300781 150 118.132812 150.101562 117.832031 C 150.332031 117.265625 150.132812 117.167969 149.832031 117.699219 Z M 149.832031 117.699219 "/>
<path style=" stroke:none;fill-rule:nonzero;fill:rgb(0%,0%,0%);fill-opacity:1;" d="M 123.265625 120.601562 C 122.734375 120.898438 122.332031 121.265625 122.332031 121.398438 C 122.332031 121.800781 122.433594 121.734375 123.667969 120.832031 C 124.933594 119.898438 124.632812 119.734375 123.265625 120.601562 Z M 123.265625 120.601562 "/>
<path style=" stroke:none;fill-rule:nonzero;fill:rgb(0%,0%,0%);fill-opacity:1;" d="M 127 126.132812 C 127 126.199219 127.265625 126.464844 127.601562 126.699219 C 128.101562 127.132812 128.132812 127.101562 127.699219 126.566406 C 127.265625 126.035156 127 125.867188 127 126.132812 Z M 127 126.132812 "/>
<path style=" stroke:none;fill-rule:nonzero;fill:rgb(0%,0%,0%);fill-opacity:1;" d="M 69.566406 72.464844 C 69.464844 72.734375 69.5 73.066406 69.667969 73.167969 C 70.101562 73.433594 70.332031 72.867188 70.035156 72.367188 C 69.832031 72.035156 69.699219 72.066406 69.566406 72.464844 Z M 69.566406 72.464844 "/>
<path style=" stroke:none;fill-rule:nonzero;fill:rgb(0%,0%,0%);fill-opacity:1;" d="M 103.367188 84.867188 C 103.367188 85.234375 103.464844 85.332031 103.566406 85.066406 C 103.667969 84.832031 103.632812 84.535156 103.535156 84.433594 C 103.433594 84.300781 103.332031 84.5 103.367188 84.867188 Z M 103.367188 84.867188 "/>
<path style=" stroke:none;fill-rule:nonzero;fill:rgb(0%,0%,0%);fill-opacity:1;" d="M 104.632812 86.566406 L 103.832031 87.5 L 104.832031 86.667969 C 105.398438 86.199219 105.898438 85.800781 105.964844 85.734375 C 106.035156 85.699219 105.964844 85.667969 105.765625 85.667969 C 105.601562 85.667969 105.101562 86.066406 104.632812 86.566406 Z M 104.632812 86.566406 "/>
<path style=" stroke:none;fill-rule:nonzero;fill:rgb(0%,0%,0%);fill-opacity:1;" d="M 101.535156 88.632812 C 101.234375 88.964844 101 89.367188 101 89.535156 C 101 89.667969 101.234375 89.464844 101.535156 89.066406 C 101.832031 88.632812 102.265625 88.367188 102.535156 88.464844 C 102.765625 88.566406 103.035156 88.535156 103.132812 88.398438 C 103.464844 87.867188 102.035156 88.066406 101.535156 88.632812 Z M 101.535156 88.632812 "/>
<path style=" stroke:none;fill-rule:nonzero;fill:rgb(0%,0%,0%);fill-opacity:1;" d="M 87.199219 88.898438 C 87 89.367188 87.035156 89.398438 87.367188 89.101562 C 87.601562 88.867188 87.699219 88.601562 87.601562 88.5 C 87.5 88.398438 87.300781 88.566406 87.199219 88.898438 Z M 87.199219 88.898438 "/>
<path style=" stroke:none;fill-rule:nonzero;fill:rgb(0%,0%,0%);fill-opacity:1;" d="M 76.699219 113.867188 C 76.699219 114.234375 76.800781 114.332031 76.898438 114.066406 C 77 113.832031 76.964844 113.535156 76.867188 113.433594 C 76.765625 113.300781 76.667969 113.5 76.699219 113.867188 Z M 76.699219 113.867188 "/>
<path style=" stroke:none;fill-rule:nonzero;fill:rgb(0%,0%,0%);fill-opacity:1;" d="M 100.433594 115.167969 C 100.433594 115.433594 100.566406 115.566406 100.734375 115.464844 C 100.898438 115.367188 100.933594 115.132812 100.832031 114.964844 C 100.535156 114.535156 100.433594 114.601562 100.433594 115.167969 Z M 100.433594 115.167969 "/>
<path style=" stroke:none;fill-rule:nonzero;fill:rgb(0%,0%,0%);fill-opacity:1;" d="M 52.699219 117.898438 C 52.933594 118.300781 53.199219 118.566406 53.300781 118.464844 C 53.398438 118.398438 53.199219 118.066406 52.867188 117.734375 C 52.300781 117.199219 52.265625 117.199219 52.699219 117.898438 Z M 52.699219 117.898438 "/>
<path style=" stroke:none;fill-rule:nonzero;fill:rgb(0%,0%,0%);fill-opacity:1;" d="M 80.367188 126.535156 C 80.367188 126.898438 80.464844 127 80.566406 126.734375 C 80.667969 126.5 80.632812 126.199219 80.535156 126.101562 C 80.433594 125.964844 80.332031 126.167969 80.367188 126.535156 Z M 80.367188 126.535156 "/>
<path style=" stroke:none;fill-rule:nonzero;fill:rgb(0%,0%,0%);fill-opacity:1;" d="M 107.5 128.332031 C 107.601562 128.5 107.765625 128.667969 107.867188 128.667969 C 107.933594 128.667969 108 128.5 108 128.332031 C 108 128.132812 107.832031 128 107.632812 128 C 107.464844 128 107.398438 128.132812 107.5 128.332031 Z M 107.5 128.332031 "/>
<path style=" stroke:none;fill-rule:nonzero;fill:rgb(0%,0%,0%);fill-opacity:1;" d="M 107 129.300781 C 107 129.464844 106.535156 129.734375 105.933594 129.832031 C 105.367188 129.964844 104.667969 130.300781 104.398438 130.535156 C 103.800781 131.167969 104.101562 131.132812 105.832031 130.332031 C 107.265625 129.667969 108.035156 129 107.367188 129 C 107.167969 129 107 129.132812 107 129.300781 Z M 107 129.300781 "/>
<path style=" stroke:none;fill-rule:nonzero;fill:rgb(0%,0%,0%);fill-opacity:1;" d="M 102.5 131.332031 C 102.234375 131.765625 102.667969 131.765625 103.332031 131.332031 C 103.765625 131.066406 103.765625 131 103.265625 131 C 102.964844 131 102.601562 131.132812 102.5 131.332031 Z M 102.5 131.332031 "/>
<path style=" stroke:none;fill-rule:nonzero;fill:rgb(0%,0%,0%);fill-opacity:1;" d="M 98.566406 132.800781 C 98.433594 133.132812 98.535156 133.234375 98.867188 133.101562 C 99.101562 133 99.332031 132.800781 99.332031 132.632812 C 99.332031 132.167969 98.765625 132.300781 98.566406 132.800781 Z M 98.566406 132.800781 "/>
<path style=" stroke:none;fill-rule:nonzero;fill:rgb(0%,0%,0%);fill-opacity:1;" d="M 96.933594 133.566406 C 97.167969 133.667969 97.464844 133.632812 97.566406 133.535156 C 97.699219 133.433594 97.5 133.332031 97.132812 133.367188 C 96.765625 133.367188 96.667969 133.464844 96.933594 133.566406 Z M 96.933594 133.566406 "/>
<path style=" stroke:none;fill-rule:nonzero;fill:rgb(0%,0%,0%);fill-opacity:1;" d="M 68 136.699219 C 67.367188 137.035156 67.066406 137.332031 67.332031 137.332031 C 67.601562 137.332031 68.199219 137.035156 68.667969 136.667969 C 69.699219 135.832031 69.5 135.867188 68 136.699219 Z M 68 136.699219 "/>
<path style=" stroke:none;fill-rule:nonzero;fill:rgb(0%,0%,0%);fill-opacity:1;" d="M 98.765625 154.566406 C 99.832031 154.632812 101.464844 154.632812 102.433594 154.566406 C 103.398438 154.5 102.535156 154.464844 100.5 154.464844 C 98.5 154.464844 97.699219 154.5 98.765625 154.566406 Z M 98.765625 154.566406 "/>
</g>
</svg>
